<svg width="331" height="56" viewBox="0 0 331 56" fill="none" xmlns="http://www.w3.org/2000/svg">
<path d="M0 8C0 3.58172 3.58172 0 8 0H323C327.418 0 331 3.58172 331 8V48C331 52.4183 327.418 56 323 56H8.00001C3.58173 56 0 52.4183 0 48V8Z" fill="#F7F8F9"/>
<path fill-rule="evenodd" clip-rule="evenodd" d="M323 1H8C4.13401 1 1 4.13401 1 8V48C1 51.866 4.13401 55 8.00001 55H323C326.866 55 330 51.866 330 48V8C330 4.13401 326.866 1 323 1ZM8 0C3.58172 0 0 3.58172 0 8V48C0 52.4183 3.58173 56 8.00001 56H323C327.418 56 331 52.4183 331 48V8C331 3.58172 327.418 0 323 0H8Z" fill="#E8ECF4"/>
<path d="M23.76 33.195C23.05 33.195 22.3825 33.055 21.7575 32.775C21.1325 32.49 20.5825 32.1 20.1075 31.605C19.6375 31.105 19.2675 30.525 18.9975 29.865C18.7325 29.205 18.6 28.5 18.6 27.75C18.6 27 18.7325 26.295 18.9975 25.635C19.2675 24.975 19.6375 24.3975 20.1075 23.9025C20.5825 23.4025 21.1325 23.0125 21.7575 22.7325C22.3825 22.4475 23.05 22.305 23.76 22.305C24.61 22.305 25.3925 22.5025 26.1075 22.8975C26.8225 23.2925 27.415 23.8175 27.885 24.4725L26.7675 25.0725C26.4175 24.6125 25.975 24.2475 25.44 23.9775C24.91 23.7025 24.35 23.565 23.76 23.565C23.215 23.565 22.705 23.675 22.23 23.895C21.76 24.115 21.3475 24.4175 20.9925 24.8025C20.6375 25.1875 20.36 25.6325 20.16 26.1375C19.96 26.6425 19.86 27.18 19.86 27.75C19.86 28.325 19.96 28.865 20.16 29.37C20.365 29.875 20.645 30.32 21 30.705C21.36 31.09 21.775 31.3925 22.245 31.6125C22.72 31.8275 23.225 31.935 23.76 31.935C24.37 31.935 24.935 31.7975 25.455 31.5225C25.98 31.2425 26.4175 30.8775 26.7675 30.4275L27.885 31.035C27.415 31.69 26.8225 32.215 26.1075 32.61C25.3925 33 24.61 33.195 23.76 33.195Z" fill="#8391A1"/>
<path d="M32.2781 33.195C31.5881 33.195 30.9581 33.0175 30.3881 32.6625C29.8231 32.3075 29.3706 31.8325 29.0306 31.2375C28.6956 30.6375 28.5281 29.975 28.5281 29.25C28.5281 28.7 28.6256 28.1875 28.8206 27.7125C29.0156 27.2325 29.2831 26.8125 29.6231 26.4525C29.9681 26.0875 30.3681 25.8025 30.8231 25.5975C31.2781 25.3925 31.7631 25.29 32.2781 25.29C32.9681 25.29 33.5956 25.4675 34.1606 25.8225C34.7306 26.1775 35.1831 26.655 35.5181 27.255C35.8581 27.855 36.0281 28.52 36.0281 29.25C36.0281 29.795 35.9306 30.305 35.7356 30.78C35.5406 31.255 35.2706 31.675 34.9256 32.04C34.5856 32.4 34.1881 32.6825 33.7331 32.8875C33.2831 33.0925 32.7981 33.195 32.2781 33.195ZM32.2781 31.935C32.7481 31.935 33.1706 31.8125 33.5456 31.5675C33.9256 31.3175 34.2231 30.99 34.4381 30.585C34.6581 30.175 34.7681 29.73 34.7681 29.25C34.7681 28.76 34.6556 28.31 34.4306 27.9C34.2106 27.49 33.9131 27.1625 33.5381 26.9175C33.1631 26.6725 32.7431 26.55 32.2781 26.55C31.8081 26.55 31.3856 26.675 31.0106 26.925C30.6356 27.17 30.3381 27.4975 30.1181 27.9075C29.8981 28.3175 29.7881 28.765 29.7881 29.25C29.7881 29.75 29.9006 30.205 30.1256 30.615C30.3506 31.02 30.6531 31.3425 31.0331 31.5825C31.4131 31.8175 31.8281 31.935 32.2781 31.935Z" fill="#8391A1"/>
<path d="M43.8991 28.335V33H42.6391V28.6125C42.6391 28.2325 42.5466 27.8875 42.3616 27.5775C42.1766 27.2675 41.9291 27.0225 41.6191 26.8425C41.3091 26.6575 40.9641 26.565 40.5841 26.565C40.2091 26.565 39.8641 26.6575 39.5491 26.8425C39.2391 27.0225 38.9916 27.2675 38.8066 27.5775C38.6216 27.8875 38.5291 28.2325 38.5291 28.6125V33H37.2691V25.5H38.5291V26.4375C38.7941 26.0875 39.1291 25.81 39.5341 25.605C39.9391 25.395 40.3791 25.29 40.8541 25.29C41.4141 25.29 41.9241 25.4275 42.3841 25.7025C42.8491 25.9725 43.2166 26.3375 43.4866 26.7975C43.7616 27.2575 43.8991 27.77 43.8991 28.335Z" fill="#8391A1"/>
<path d="M49.284 26.76H47.5815L47.574 33H46.314L46.3215 26.76H45.0315V25.5H46.3215L46.314 23.145H47.574L47.5815 25.5H49.284V26.76Z" fill="#8391A1"/>
<path d="M50.6285 33V25.5H51.8885V26.4375C52.1535 26.0875 52.4885 25.81 52.8935 25.605C53.2985 25.395 53.7385 25.29 54.2135 25.29C54.5035 25.29 54.7835 25.3275 55.0535 25.4025L54.5435 26.6625C54.3385 26.5975 54.1385 26.565 53.9435 26.565C53.5685 26.565 53.2235 26.6575 52.9085 26.8425C52.5985 27.0225 52.351 27.2675 52.166 27.5775C51.981 27.8875 51.8885 28.2325 51.8885 28.6125V33H50.6285Z" fill="#8391A1"/>
<path d="M61.6243 25.5H62.8843V33H61.6243L61.5718 31.7325C61.3368 32.1675 61.0118 32.52 60.5968 32.79C60.1868 33.06 59.6968 33.195 59.1268 33.195C58.5768 33.195 58.0618 33.0925 57.5818 32.8875C57.1018 32.6775 56.6768 32.39 56.3068 32.025C55.9418 31.655 55.6568 31.23 55.4518 30.75C55.2468 30.27 55.1443 29.7525 55.1443 29.1975C55.1443 28.6625 55.2443 28.1575 55.4443 27.6825C55.6443 27.2075 55.9218 26.7925 56.2768 26.4375C56.6368 26.0775 57.0518 25.7975 57.5218 25.5975C57.9918 25.3925 58.4968 25.29 59.0368 25.29C59.6268 25.29 60.1443 25.43 60.5893 25.71C61.0343 25.985 61.3943 26.3425 61.6693 26.7825L61.6243 25.5ZM59.1043 31.9725C59.5993 31.9725 60.0268 31.8525 60.3868 31.6125C60.7518 31.3675 61.0318 31.0375 61.2268 30.6225C61.4268 30.2075 61.5268 29.75 61.5268 29.25C61.5268 28.74 61.4268 28.28 61.2268 27.87C61.0268 27.455 60.7443 27.1275 60.3793 26.8875C60.0193 26.6425 59.5943 26.52 59.1043 26.52C58.6093 26.52 58.1593 26.6425 57.7543 26.8875C57.3493 27.1325 57.0268 27.4625 56.7868 27.8775C56.5518 28.2875 56.4343 28.745 56.4343 29.25C56.4343 29.755 56.5568 30.215 56.8018 30.63C57.0468 31.04 57.3718 31.3675 57.7768 31.6125C58.1818 31.8525 58.6243 31.9725 59.1043 31.9725Z" fill="#8391A1"/>
<path d="M66.6709 33.1425C66.2659 33.1275 65.8709 33.0525 65.4859 32.9175C65.1059 32.7775 64.7709 32.59 64.4809 32.355C64.1959 32.115 63.9884 31.84 63.8584 31.53L64.9384 31.065C65.0134 31.235 65.1484 31.395 65.3434 31.545C65.5384 31.695 65.7634 31.815 66.0184 31.905C66.2734 31.995 66.5309 32.04 66.7909 32.04C67.0659 32.04 67.3234 31.9975 67.5634 31.9125C67.8034 31.8275 67.9984 31.7025 68.1484 31.5375C68.3034 31.3675 68.3809 31.165 68.3809 30.93C68.3809 30.68 68.2959 30.485 68.1259 30.345C67.9609 30.2 67.7509 30.0875 67.4959 30.0075C67.2459 29.9225 66.9909 29.8425 66.7309 29.7675C66.2159 29.6375 65.7559 29.4825 65.3509 29.3025C64.9459 29.1175 64.6259 28.885 64.3909 28.605C64.1609 28.32 64.0459 27.9575 64.0459 27.5175C64.0459 27.0525 64.1734 26.65 64.4284 26.31C64.6884 25.97 65.0284 25.7075 65.4484 25.5225C65.8684 25.3375 66.3184 25.245 66.7984 25.245C67.4034 25.245 67.9559 25.375 68.4559 25.635C68.9559 25.895 69.3284 26.2475 69.5734 26.6925L68.5609 27.285C68.4759 27.105 68.3459 26.9475 68.1709 26.8125C67.9959 26.6725 67.7959 26.5625 67.5709 26.4825C67.3459 26.4025 67.1159 26.36 66.8809 26.355C66.5909 26.345 66.3184 26.3825 66.0634 26.4675C65.8134 26.5525 65.6109 26.6825 65.4559 26.8575C65.3059 27.0275 65.2309 27.24 65.2309 27.495C65.2309 27.745 65.3109 27.935 65.4709 28.065C65.6359 28.195 65.8484 28.3 66.1084 28.38C66.3734 28.455 66.6609 28.5425 66.9709 28.6425C67.4259 28.7875 67.8509 28.955 68.2459 29.145C68.6409 29.335 68.9584 29.5725 69.1984 29.8575C69.4434 30.1425 69.5634 30.495 69.5584 30.915C69.5584 31.375 69.4209 31.7775 69.1459 32.1225C68.8709 32.4625 68.5134 32.7225 68.0734 32.9025C67.6384 33.0825 67.1709 33.1625 66.6709 33.1425Z" fill="#8391A1"/>
<path d="M74.0701 33.195C73.3801 33.195 72.7501 33.0175 72.1801 32.6625C71.6151 32.3075 71.1626 31.8325 70.8226 31.2375C70.4876 30.6375 70.3201 29.975 70.3201 29.25C70.3201 28.7 70.4176 28.1875 70.6126 27.7125C70.8076 27.2325 71.0751 26.8125 71.4151 26.4525C71.7601 26.0875 72.1601 25.8025 72.6151 25.5975C73.0701 25.3925 73.5551 25.29 74.0701 25.29C74.6351 25.29 75.1526 25.405 75.6226 25.635C76.0976 25.86 76.5026 26.175 76.8376 26.58C77.1776 26.985 77.4301 27.455 77.5951 27.99C77.7651 28.525 77.8276 29.0975 77.7826 29.7075H71.6626C71.7226 30.1325 71.8626 30.5125 72.0826 30.8475C72.3026 31.1775 72.5826 31.44 72.9226 31.635C73.2676 31.83 73.6501 31.93 74.0701 31.935C74.5201 31.935 74.9276 31.82 75.2926 31.59C75.6576 31.355 75.9526 31.035 76.1776 30.63L77.4601 30.93C77.1601 31.595 76.7076 32.14 76.1026 32.565C75.4976 32.985 74.8201 33.195 74.0701 33.195ZM71.6251 28.7175H76.5151C76.4751 28.2975 76.3401 27.915 76.1101 27.57C75.8801 27.22 75.5876 26.94 75.2326 26.73C74.8776 26.52 74.4901 26.415 74.0701 26.415C73.6501 26.415 73.2651 26.5175 72.9151 26.7225C72.5651 26.9275 72.2751 27.205 72.0451 27.555C71.8201 27.9 71.6801 28.2875 71.6251 28.7175Z" fill="#8391A1"/>
<path d="M85.6765 28.335V33H84.4165V28.6125C84.4165 28.2325 84.324 27.8875 84.139 27.5775C83.954 27.2675 83.7065 27.0225 83.3965 26.8425C83.0865 26.6575 82.7415 26.565 82.3615 26.565C81.9865 26.565 81.6415 26.6575 81.3265 26.8425C81.0165 27.0225 80.769 27.2675 80.584 27.5775C80.399 27.8875 80.3065 28.2325 80.3065 28.6125V33H79.0465V25.5H80.3065V26.4375C80.5715 26.0875 80.9065 25.81 81.3115 25.605C81.7165 25.395 82.1565 25.29 82.6315 25.29C83.1915 25.29 83.7015 25.4275 84.1615 25.7025C84.6265 25.9725 84.994 26.3375 85.264 26.7975C85.539 27.2575 85.6765 27.77 85.6765 28.335ZM83.5915 24.57C83.4065 24.57 83.1965 24.51 82.9615 24.39C82.7315 24.27 82.499 24.1325 82.264 23.9775C82.029 23.8225 81.814 23.695 81.619 23.595C81.429 23.49 81.279 23.4575 81.169 23.4975C81.054 23.5375 80.9665 23.62 80.9065 23.745C80.8515 23.87 80.849 24.025 80.899 24.21L80.089 24.4275C79.984 24.1175 79.9665 23.825 80.0365 23.55C80.1065 23.27 80.2465 23.045 80.4565 22.875C80.6715 22.705 80.9365 22.62 81.2515 22.62C81.4415 22.62 81.649 22.675 81.874 22.785C82.104 22.895 82.334 23.0225 82.564 23.1675C82.799 23.3075 83.0115 23.4325 83.2015 23.5425C83.3965 23.6475 83.5515 23.7 83.6665 23.7C83.7765 23.7 83.859 23.66 83.914 23.58C83.969 23.495 83.999 23.3975 84.004 23.2875C84.009 23.1775 83.994 23.08 83.959 22.995L84.7765 22.7325C84.8865 23.0625 84.9015 23.3675 84.8215 23.6475C84.7465 23.9225 84.599 24.145 84.379 24.315C84.164 24.485 83.9015 24.57 83.5915 24.57Z" fill="#8391A1"/>
<path d="M93.0599 25.5H94.3199V33H93.0599L93.0074 31.7325C92.7724 32.1675 92.4474 32.52 92.0324 32.79C91.6224 33.06 91.1324 33.195 90.5624 33.195C90.0124 33.195 89.4974 33.0925 89.0174 32.8875C88.5374 32.6775 88.1124 32.39 87.7424 32.025C87.3774 31.655 87.0924 31.23 86.8874 30.75C86.6824 30.27 86.5799 29.7525 86.5799 29.1975C86.5799 28.6625 86.6799 28.1575 86.8799 27.6825C87.0799 27.2075 87.3574 26.7925 87.7124 26.4375C88.0724 26.0775 88.4874 25.7975 88.9574 25.5975C89.4274 25.3925 89.9324 25.29 90.4724 25.29C91.0624 25.29 91.5799 25.43 92.0249 25.71C92.4699 25.985 92.8299 26.3425 93.1049 26.7825L93.0599 25.5ZM90.5399 31.9725C91.0349 31.9725 91.4624 31.8525 91.8224 31.6125C92.1874 31.3675 92.4674 31.0375 92.6624 30.6225C92.8624 30.2075 92.9624 29.75 92.9624 29.25C92.9624 28.74 92.8624 28.28 92.6624 27.87C92.4624 27.455 92.1799 27.1275 91.8149 26.8875C91.4549 26.6425 91.0299 26.52 90.5399 26.52C90.0449 26.52 89.5949 26.6425 89.1899 26.8875C88.7849 27.1325 88.4624 27.4625 88.2224 27.8775C87.9874 28.2875 87.8699 28.745 87.8699 29.25C87.8699 29.755 87.9924 30.215 88.2374 30.63C88.4824 31.04 88.8074 31.3675 89.2124 31.6125C89.6174 31.8525 90.0599 31.9725 90.5399 31.9725Z" fill="#8391A1"/>
</svg>
